<svg width="36" height="18" viewBox="0 0 36 18" fill="none" xmlns="http://www.w3.org/2000/svg">
<path d="M31.5 11C31.4402 11 31.3822 10.9885 31.326 10.9656C31.2698 10.9427 31.2232 10.9122 31.1861 10.874L29.1233 8.76717C29.0411 8.6832 29 8.57633 29 8.44656C29 8.31679 29.0411 8.20992 29.1233 8.12595C29.2055 8.04198 29.3102 8 29.4372 8C29.5643 8 29.6689 8.04198 29.7511 8.12595L31.5 9.91221L33.2489 8.12595C33.3311 8.04199 33.4357 8 33.5628 8C33.6898 8 33.7945 8.04199 33.8767 8.12595C33.9589 8.20992 34 8.31679 34 8.44656C34 8.57634 33.9589 8.68321 33.8767 8.76717L31.8139 10.874C31.7691 10.9198 31.7205 10.9524 31.6682 10.9716C31.6158 10.9908 31.5598 11.0003 31.5 11Z" fill="white"/>
</svg>
