<svg width="79" height="14" viewBox="0 0 79 14" fill="none" xmlns="http://www.w3.org/2000/svg">
<path d="M7 11.5984L10.3949 13.6958C11.0166 14.0802 11.7774 13.512 11.6138 12.7933L10.7139 8.84915L13.7162 6.19185C14.2643 5.70719 13.9698 4.788 13.2499 4.7295L9.29871 4.38689L7.7526 0.659988C7.47447 -0.0168711 6.52553 -0.0168711 6.2474 0.659988L4.70129 4.37854L0.750115 4.72115C0.030233 4.77964 -0.264264 5.69883 0.283828 6.1835L3.28606 8.8408L2.38621 12.785C2.2226 13.5036 2.98339 14.0718 3.6051 13.6874L7 11.5984Z" fill="#FCAF20"/>
<path d="M23 11.5984L26.3949 13.6958C27.0166 14.0802 27.7774 13.512 27.6138 12.7933L26.7139 8.84915L29.7162 6.19185C30.2643 5.70719 29.9698 4.788 29.2499 4.7295L25.2987 4.38689L23.7526 0.659988C23.4745 -0.0168711 22.5255 -0.0168711 22.2474 0.659988L20.7013 4.37854L16.7501 4.72115C16.0302 4.77964 15.7357 5.69883 16.2838 6.1835L19.2861 8.8408L18.3862 12.785C18.2226 13.5036 18.9834 14.0718 19.6051 13.6874L23 11.5984Z" fill="#FCAF20"/>
<path d="M39.5 11.5984L42.6524 13.6958C43.2297 14.0802 43.9362 13.512 43.7842 12.7933L42.9487 8.84915L45.7364 6.19185C46.2454 5.70719 45.9719 4.788 45.3035 4.7295L41.6345 4.38689L40.1988 0.659988C39.9406 -0.0168711 39.0594 -0.0168711 38.8012 0.659988L37.3655 4.37854L33.6965 4.72115C33.0281 4.77964 32.7546 5.69883 33.2636 6.1835L36.0513 8.8408L35.2158 12.785C35.0638 13.5036 35.7703 14.0718 36.3476 13.6874L39.5 11.5984Z" fill="#FCAF20"/>
<path d="M56 11.5984L59.3949 13.6958C60.0166 14.0802 60.7774 13.512 60.6138 12.7933L59.7139 8.84915L62.7162 6.19185C63.2643 5.70719 62.9698 4.788 62.2499 4.7295L58.2987 4.38689L56.7526 0.659988C56.4745 -0.0168711 55.5255 -0.0168711 55.2474 0.659988L53.7013 4.37854L49.7501 4.72115C49.0302 4.77964 48.7357 5.69883 49.2838 6.1835L52.2861 8.8408L51.3862 12.785C51.2226 13.5036 51.9834 14.0718 52.6051 13.6874L56 11.5984Z" fill="#FCAF20"/>
<path d="M72 11.5984L75.3949 13.6958C76.0166 14.0802 76.7774 13.512 76.6138 12.7933L75.7139 8.84915L78.7162 6.19185C79.2643 5.70719 78.9698 4.788 78.2499 4.7295L74.2987 4.38689L72.7526 0.659988C72.4745 -0.0168711 71.5255 -0.0168711 71.2474 0.659988L69.7013 4.37854L65.7501 4.72115C65.0302 4.77964 64.7357 5.69883 65.2838 6.1835L68.2861 8.8408L67.3862 12.785C67.2226 13.5036 67.9834 14.0718 68.6051 13.6874L72 11.5984Z" fill="#FCAF20"/>
</svg>
