<svg width="149" height="146" viewBox="0 0 149 146" fill="none" xmlns="http://www.w3.org/2000/svg">
<path d="M44.9331 17.3366L38.2656 8.82001L40.5051 7.87149C43.3378 11.9078 44.5956 13.6535 45.1785 14.6625C44.7694 12.7453 44.2479 9.01174 43.8082 6.45878L45.6898 5.66162C46.9987 7.27613 49.5962 10.5657 50.6904 12.1903C50.087 9.94008 49.4019 5.83316 49.1053 4.18837L51.1505 3.33066L52.7458 14.0066L50.5676 14.935C49.1258 13.0279 46.9067 10.2933 45.8534 8.79983C46.2522 10.6565 46.784 14.2488 47.1112 16.3982L44.9331 17.3366Z" fill="#124759"/>
<path d="M58.5645 9.89927L58.2577 12.422L56.0488 12.876L57.4191 1.93769L60.2313 1.36252L66.0602 10.8276L63.698 11.312L62.3481 9.13238L58.5645 9.89927ZM61.4891 7.41696C60.2927 5.39881 59.5359 4.11729 59.086 3.24948C59.086 4.25856 58.8712 6.01435 58.6769 7.98204L61.4891 7.41696Z" fill="#124759"/>
<path d="M69.1687 2.11905L65.9577 2.27041L65.8555 0.433902L74.5579 0L74.6602 1.8466L71.4492 2.00805L71.9196 10.5751L69.6391 10.6861L69.1687 2.11905Z" fill="#124759"/>
<path d="M86.6164 8.35522C86.2988 9.34665 85.6171 10.1851 84.7051 10.706C83.7932 11.2269 82.7168 11.3926 81.6874 11.1705C78.3537 10.7871 77.0652 8.27449 77.4231 5.328C77.781 2.38151 79.7035 0.141363 83.0781 0.534902C85.8801 0.857805 87.0459 2.62368 87.097 4.39965L84.8268 4.13729C84.788 3.6287 84.5556 3.15345 84.1761 2.80713C83.7967 2.4608 83.2984 2.26907 82.7816 2.27051C80.9102 2.04851 80.0001 3.63276 79.7649 5.52981C79.5603 7.26542 79.9592 9.19275 81.9839 9.42484C82.473 9.52134 82.9809 9.43819 83.4122 9.19104C83.8434 8.94388 84.1683 8.54974 84.3257 8.08277L86.6164 8.35522Z" fill="#124759"/>
<path d="M92.2398 2.24063L94.4078 2.9268L93.1602 6.79155L97.2506 8.07308L98.5084 4.20832L100.687 4.89449L97.4858 14.8238L95.3077 14.1376L96.6984 9.84904L92.608 8.56752L91.2172 12.8561L89.0391 12.1699L92.2398 2.24063Z" fill="#124759"/>
<path d="M107.332 19.9194L109.991 9.17279L112.036 10.5048L110.686 15.419C110.36 16.686 109.967 17.9356 109.51 19.1626C110.488 18.2734 111.512 17.4348 112.578 16.65L116.668 13.4916L118.622 14.753L109.623 21.4128L107.332 19.9194Z" fill="#124759"/>
<path d="M123.287 18.769L116.343 26.6296L114.625 25.1463L121.569 17.2856L123.287 18.769Z" fill="#124759"/>
<path d="M127.142 22.2708L129.883 25.409C130.36 25.8952 130.726 26.4763 130.957 27.1135C131.188 27.7507 131.279 28.4292 131.222 29.1036C131.166 29.7781 130.965 30.4329 130.632 31.0243C130.298 31.6157 129.841 32.1301 129.29 32.533C126.948 34.5512 123.901 34.5512 121.794 32.1193L119.125 29.0921L127.142 22.2708ZM122.029 29.5462L123.154 30.8277C124.473 32.3413 126.222 32.0487 127.766 30.7268C129.085 29.6168 129.729 27.972 128.39 26.418L127.255 25.1163L122.029 29.5462Z" fill="#124759"/>
<path d="M134.473 42.5328L131.917 38.2241L129.606 39.5561L132.408 44.3088L130.659 45.0051L126.865 38.6277L135.997 33.3806L139.771 39.768L138.155 40.6963L135.496 36.206L133.553 37.326L136.099 41.6348L134.473 42.5328Z" fill="#124759"/>
<path d="M140.313 55.1359C137.531 56.145 134.556 55.2974 133.41 52.1087C132.265 48.92 133.993 46.6092 136.856 45.6103C139.72 44.6113 142.614 45.6103 143.718 48.6375C144.751 51.5335 143.36 54.0764 140.313 55.1359ZM137.695 47.7798C135.742 48.4659 134.566 49.7979 135.19 51.5638C135.865 53.4608 137.715 53.5819 139.495 52.9462C141.274 52.3105 142.563 50.9987 141.929 49.1723C141.295 47.3459 139.628 47.1037 137.695 47.7798Z" fill="#124759"/>
<path d="M140.516 63.3601C140.831 63.3226 141.15 63.378 141.433 63.5195C141.717 63.6609 141.951 63.882 142.107 64.1548C142.263 64.4277 142.333 64.74 142.309 65.0523C142.285 65.3646 142.168 65.6629 141.972 65.9095C141.777 66.1561 141.511 66.34 141.21 66.4379C140.908 66.5357 140.584 66.5432 140.278 66.4594C139.973 66.3755 139.699 66.2041 139.492 65.9668C139.285 65.7295 139.153 65.4369 139.115 65.126C139.088 64.919 139.102 64.7088 139.158 64.5076C139.214 64.3063 139.31 64.1181 139.441 63.9537C139.571 63.7894 139.733 63.6523 139.918 63.5504C140.102 63.4485 140.306 63.3838 140.516 63.3601Z" fill="#124759"/>
<path d="M137.254 76.1448L148.063 74.7321L147.777 77.1236C142.848 77.5373 140.618 77.719 139.473 77.6988C141.355 78.3143 144.893 79.7169 147.347 80.6453L147.102 82.6634C145.057 82.9662 140.843 83.5312 138.86 83.6725C141.14 84.288 145.077 85.7714 146.662 86.3365L146.406 88.506L136.252 84.4697L136.528 82.1387C138.921 81.8663 142.429 81.3516 144.269 81.2003C142.439 80.6049 139.023 79.2528 136.978 78.4455L137.254 76.1448Z" fill="#124759"/>
<path d="M136.918 91.5233L134.873 89.9997L135.579 87.8907L144.475 94.5506L143.565 97.2347L132.316 97.4567L133.083 95.2065L135.671 95.1459L136.918 91.5233ZM137.624 95.267C139.986 95.267 141.489 95.267 142.481 95.3175C141.571 94.7423 140.17 93.7433 138.534 92.5829L137.624 95.267Z" fill="#124759"/>
<path d="M138.389 104.49L139.862 101.664L141.529 102.512L137.53 110.151L135.863 109.303L137.336 106.488L129.615 102.552L130.638 100.534L138.389 104.49Z" fill="#124759"/>
<path d="M124.156 116.225C123.445 115.457 123.051 114.455 123.051 113.415C123.051 112.375 123.445 111.373 124.156 110.605C126.201 107.961 129.033 108.133 131.426 109.919C133.819 111.705 134.821 114.48 132.766 117.164C131.058 119.384 128.931 119.475 127.346 118.627L128.727 116.821C129.188 117.044 129.717 117.089 130.21 116.945C130.702 116.801 131.122 116.479 131.385 116.044C132.531 114.55 131.6 113.016 130.066 111.826C128.532 110.635 126.763 110.141 125.526 111.745C125.198 112.113 125.017 112.587 125.017 113.077C125.017 113.567 125.198 114.041 125.526 114.409L124.156 116.225Z" fill="#124759"/>
<path d="M126.681 124.076L124.984 125.589L122.223 122.562L119.063 125.408L121.814 128.435L120.116 129.938L113.029 122.199L114.727 120.685L117.795 124.035L120.965 121.22L117.897 117.87L119.594 116.356L126.681 124.076Z" fill="#124759"/>
<path d="M103.622 128.062L111.7 135.731L109.512 136.82L105.922 133.208C104.977 132.295 104.079 131.335 103.233 130.332C103.532 131.6 103.76 132.884 103.918 134.177L104.644 139.222L102.599 140.231L101.27 129.212L103.622 128.062Z" fill="#124759"/>
<path d="M96.606 142.27L93.2109 132.391L95.3686 131.664L98.7637 141.543L96.606 142.27Z" fill="#124759"/>
<path d="M91.5849 143.793L87.4944 144.53C86.828 144.692 86.1342 144.712 85.4595 144.588C84.7847 144.464 84.1446 144.199 83.582 143.811C83.0194 143.423 82.5473 142.921 82.1974 142.339C81.8475 141.756 81.6278 141.106 81.553 140.433C81.011 137.406 82.5756 134.823 85.7048 134.258L89.7339 133.531L91.5849 143.793ZM87.7705 135.721L86.0832 136.024C84.0891 136.387 83.4755 138.042 83.8437 140.009C84.1505 141.695 85.2651 143.037 87.3001 142.714L89.0079 142.411L87.7705 135.721Z" fill="#124759"/>
<path d="M70.0586 139.757L75.1206 139.838V137.184L69.5371 137.093L69.8439 135.257L77.3805 135.378L77.2067 145.802L69.711 145.681V143.834L74.9876 143.925V141.695L69.9257 141.614L70.0586 139.757Z" fill="#124759"/>
<path d="M56.1628 138.466C56.715 135.61 58.9136 133.481 62.2985 134.106C65.6833 134.732 66.8286 137.366 66.2662 140.312C65.7038 143.259 63.3722 145.226 60.1305 144.621C57.0934 144.056 55.5594 141.604 56.1628 138.466ZM63.9244 139.919C64.313 137.9 63.7097 136.236 61.8792 135.882C59.834 135.509 58.8113 137.023 58.5046 138.91C58.1978 140.797 58.658 142.522 60.5498 142.885C62.4416 143.249 63.546 141.917 63.9244 139.919Z" fill="#124759"/>
<path d="M48.8702 134.49C48.7901 134.683 48.6713 134.858 48.5209 135.005C48.3706 135.152 48.1917 135.268 47.9951 135.345C47.7985 135.422 47.5881 135.46 47.3765 135.455C47.1649 135.45 46.9565 135.403 46.7637 135.317C46.4717 135.194 46.2234 134.987 46.0503 134.724C45.8771 134.462 45.787 134.154 45.7912 133.84C45.7953 133.527 45.8937 133.222 46.0738 132.963C46.2538 132.705 46.5075 132.505 46.8027 132.389C47.0979 132.273 47.4214 132.247 47.7321 132.312C48.0428 132.378 48.3268 132.533 48.5482 132.757C48.7696 132.982 48.9183 133.267 48.9757 133.575C49.033 133.884 48.9963 134.202 48.8702 134.49Z" fill="#124759"/>
<path d="M39.2886 125.287L35.1061 135.206L33.1632 133.753C35.2902 129.353 36.231 127.386 36.8446 126.387C35.3516 127.678 32.3144 129.959 30.2896 131.604L28.6432 130.383C29.4307 128.455 31.0566 124.601 31.9463 122.865C30.259 124.49 26.9662 127.093 25.6674 128.163L23.8574 126.841L32.5087 120.221L34.4108 121.634C33.3882 123.803 32.1099 127.053 31.3429 128.697C32.795 127.446 35.6993 125.206 37.4786 123.864L39.2886 125.287Z" fill="#124759"/>
<path d="M26.0141 117.254L28.3865 116.245L29.8796 117.91L19.5716 122.148L17.7207 120.039L23.1712 110.362L24.7665 112.148L23.5189 114.388L26.0141 117.254ZM22.3838 115.973C21.1976 117.991 20.4409 119.272 19.8989 120.09C20.8601 119.595 22.4452 118.909 24.2756 118.072L22.3838 115.973Z" fill="#124759"/>
<path d="M13.9175 112.027L15.6763 114.701L14.1015 115.71L9.41797 108.455L10.9928 107.446L12.721 110.11L20.0531 105.488L21.2803 107.395L13.9175 112.027Z" fill="#124759"/>
<path d="M10.7881 93.9749C11.8172 93.7594 12.8907 93.9306 13.7986 94.4551C14.7065 94.9795 15.3833 95.8194 15.6966 96.8104C17.0056 99.8376 15.4205 102.219 12.6288 103.369C9.83707 104.52 6.93286 103.975 5.61369 100.877C4.51949 98.3038 5.5012 96.437 7.04535 95.5188L7.93502 97.5975C7.50781 97.8802 7.20426 98.3114 7.08486 98.8051C6.96546 99.2988 7.03898 99.8188 7.29077 100.261C8.01682 101.977 9.86775 101.987 11.6471 101.27C13.4264 100.554 14.7865 99.2523 13.9889 97.4461C13.8317 96.9812 13.5084 96.5886 13.0793 96.3416C12.6503 96.0947 12.1448 96.0102 11.6573 96.104L10.7881 93.9749Z" fill="#124759"/>
<path d="M2.64791 92.1692L2.17751 89.9593L6.19637 89.1319L5.32715 85.0451L1.30829 85.8726L0.837891 83.6627L11.1765 81.5336L11.6469 83.7434L7.17808 84.6617L8.0473 88.7787L12.5161 87.8605L12.9865 90.0703L2.64791 92.1692Z" fill="#124759"/>
<path d="M10.7783 70.4839L0 73.5111L0.153393 71.0994L5.11306 69.9087C6.38838 69.5569 7.6822 69.2739 8.98876 69.0611C7.96614 68.7886 6.74924 68.3043 5.27668 67.719L0.480629 65.7917L0.623794 63.5011L10.9317 67.9007L10.7783 70.4839Z" fill="#124759"/>
<path d="M1.85023 57.3864L12.2093 59.4046L11.7593 61.6145L1.35938 59.6064L1.85023 57.3864Z" fill="#124759"/>
<path d="M3.03711 52.3209L4.42786 48.4158C4.61744 47.7645 4.94623 47.161 5.39208 46.6457C5.83794 46.1304 6.39051 45.7154 7.01259 45.4285C7.63466 45.1417 8.31181 44.9897 8.99842 44.9828C9.68503 44.9759 10.3652 45.1143 10.993 45.3885C13.8972 46.3976 15.4312 49.0212 14.3267 52.0282L12.9462 55.8325L3.03711 52.3209ZM12.0259 53.108L12.6088 51.5136C13.2939 49.6367 12.169 48.2846 10.2363 47.5984C8.61034 47.0232 6.831 47.2755 6.14585 49.2028L5.55273 50.8073L12.0259 53.108Z" fill="#124759"/>
<path d="M17.3016 36.0342L14.7553 40.343L17.0664 41.6548L19.8786 36.902L21.3614 38.0625L17.5675 44.4802L8.43555 39.233L12.2192 32.8456L13.8349 33.7739L11.1761 38.2643L13.1191 39.3843L15.6756 35.0958L17.3016 36.0342Z" fill="#124759"/>
<path d="M25.5239 24.8032C27.7532 26.7104 28.5099 29.6569 26.2602 32.2199C24.0104 34.783 21.1471 34.4399 18.8258 32.4823C16.5044 30.5247 15.9829 27.5277 18.1304 25.0858C20.2779 22.6438 23.0798 22.7144 25.5239 24.8032ZM20.3392 30.6861C21.9038 32.0282 23.6832 32.3612 24.9103 30.9687C26.1374 29.5761 25.4318 27.8103 24.0002 26.5893C22.5685 25.3683 20.7585 24.894 19.47 26.3572C18.1815 27.8203 18.744 29.3541 20.3392 30.6861Z" fill="#124759"/>
<path d="M32.6721 20.565C32.4767 20.3139 32.3614 20.0109 32.3411 19.6949C32.3208 19.3788 32.3964 19.0639 32.5582 18.7904C32.7199 18.5169 32.9606 18.2971 33.2495 18.1591C33.5383 18.0211 33.8623 17.971 34.1801 18.0154C34.4978 18.0598 34.795 18.1966 35.0337 18.4083C35.2724 18.62 35.4418 18.8971 35.5203 19.2042C35.5988 19.5112 35.5828 19.8344 35.4744 20.1325C35.366 20.4306 35.1701 20.6901 34.9116 20.8779C34.744 21.0029 34.5529 21.0941 34.3495 21.1461C34.146 21.1981 33.9341 21.2099 33.726 21.1808C33.5179 21.1517 33.3176 21.0824 33.1368 20.9767C32.9559 20.871 32.798 20.7311 32.6721 20.565Z" fill="#124759"/>
</svg>
